<svg height="512" viewBox="0 0 58 58" width="512" xmlns="http://www.w3.org/2000/svg">
<g id="Page-1" fill="none" fill-rule="evenodd">
<g id="016---Picnic-Basket" fill-rule="nonzero">
<path id="Shape" d="m57 34c-3.939 18.939-3.977 19.117-4 19.22-.5785818 2.7860464-3.0345115 4.7825335-5.88 4.78h-36.24c-2.84548853.0025335-5.30141823-1.9939536-5.88-4.78-.176-.773-.306-1.581-2.96-14.22l-1.04-5c29.514-3.162-15.866 1.707 28-3 39.615 4.251 5.682.609 28 3z" fill="#cb8252"/>
<path id="Shape" d="m56 31v-4c0-14.9116882-12.0883118-27-27-27s-27 12.0883118-27 27v4h4v-4c0-12.7025492 10.2974508-23 23-23s23 10.2974508 23 23v4z" fill="#805333"/>
<g fill="#a56a43" class="basket-bottom">
<path id="Shape" d="m21 51h-2.99l-.57-4h.56c.5522847 0 1-.4477153 1-1s-.4477153-1-1-1h-.85l-.16-1.14c-.0443973-.3586569-.2788545-.6654536-.6132638-.8024804-.3344092-.1370268-.7167327-.0829609-1.0000339.1414189-.2833012.2243799-.4234954.5841576-.3667023.9410615l.12.86h-4.28l-.67-4h3.82c.5522847 0 1-.4477153 1-1s-.4477153-1-1-1h-4.15c-1.068-6.363-.96-5.721-1.03-6.14l-1.97.33c.048.29.932 5.583.97 5.81h-5.78l.42 2h5.69l.67 4h-5.53l.42 2h5.44l.67 4h-5.28l.41 2h5.2l.84 5h2.02l-.83-5h4.1l.71 5h2.02l-.71-5h2.7c.5522847 0 1-.4477153 1-1s-.4477153-1-1-1zm-9.15 0-.67-4h4.24l.57 4z"/>
<path id="Shape" d="m25.01 58h-2.02l-.55-3.86c-.0567931-.3569039.0834011-.7166816.3667023-.9410615.2833012-.2243798.6656247-.2784457 1.0000339-.1414189.3344093.1370268.5688665.4438235.6132638.8024804z"/><path id="Shape" d="m55.54 41 .42-2h-5.78c.038-.229.922-5.52.97-5.81l-1.97-.33c-.075.451.079-.467-1.03 6.14h-4.15c-.5522847 0-1 .4477153-1 1s.4477153 1 1 1h3.82l-.67 4h-4.28l.12-.86c.0772331-.5467395-.3032837-1.0526029-.85-1.13-.5455544-.0726729-1.0485502.3056868-1.13.85l-.16 1.14h-.85c-.5522847 0-1 .4477153-1 1s.4477153 1 1 1h.56l-.57 4h-2.99c-.5522847 0-1 .4477153-1 1s.4477153 1 1 1h2.7l-.71 5h2.02l.71-5h4.1l-.83 5h2.02l.84-5h5.2l.41-2h-5.28l.67-4h5.44l.42-2h-5.53l.67-4zm-9.39 10h-4.14l.57-4h4.24z"/>
<path id="Shape" d="m35.56 54.14-.55 3.86h-2.02l.59-4.14c.0443973-.3586569.2788545-.6654536.6132638-.8024804.3344092-.1370268.7167327-.0829609 1.0000339.1414189.2833012.2243799.4234954.5841576.3667023.9410615z"/><path id="Shape" d="m30 55v3h-2v-3c0-.5522847.4477153-1 1-1s1 .4477153 1 1z"/><path id="Shape" d="m44.59 30h12.41c.5522847 0 1 .4477153 1 1v2c0 .5522847-.4477153 1-1 1h-56c-.55228475 0-1-.4477153-1-1v-2c0-.5522847.44771525-1 1-1z"/>
</g>
<path id="Shape" d="m30.632 50.156 14.25-20.578c.2160948-.3050887.2439568-.7052385.0722284-1.037331s-.514362-.5406553-.8882284-.540669h-30.132c-.3738664.0000137-.7165.2085765-.8882284.540669s-.1438664.7322423.0722284 1.037331l14.25 20.578c.3749606.5293087.9833374.8438962 1.632.8438962s1.2570394-.3145875 1.632-.8438962z" fill="#9fc9d3"/>
</g>
</g>
</svg>