<?xml version="1.0" encoding="iso-8859-1"?>
<!-- Generator: Adobe Illustrator 19.0.0, SVG Export Plug-In . SVG Version: 6.00 Build 0)  -->
<svg version="1.1" id="Layer_1" xmlns="http://www.w3.org/2000/svg" xmlns:xlink="http://www.w3.org/1999/xlink" x="0px" y="0px"
	 viewBox="0 0 495 495" style="enable-background:new 0 0 495 495;" xml:space="preserve">
<g>
	
	<path style="fill:#A78966;" d="M267.5,377.927c-6.448,1.403-13.138,2.148-20,2.148s-13.552-0.746-20-2.148V455h40V377.927z"/>
	
	<path class="left-leaf" style="fill:#91DC5A;" d="M247.5,0c-51.837,0-94.01,42.173-94.01,94.01v192.055c0,44.975,31.749,82.668,74.01,91.861
		c6.448,1.403,13.138,2.148,20,2.148V0z"/>
	
	<path class="right-leaf" style="fill:#6DC82A;" d="M247.5,380.075c6.862,0,13.552-0.746,20-2.148c42.261-9.193,74.01-46.886,74.01-91.861V94.01
		C341.51,42.173,299.337,0,247.5,0V380.075z"/>
	
</g>
<g>
</g>
<g>
</g>
<g>
</g>
<g>
</g>
<g>
</g>
<g>
</g>
<g>
</g>
<g>
</g>
<g>
</g>
<g>
</g>
<g>
</g>
<g>
</g>
<g>
</g>
<g>
</g>
<g>
</g>
</svg>
